<svg xmlns="http://www.w3.org/2000/svg" version="1.1" class="svg-icon" width="512" height="512" viewBox="0 0 512 512">
<g>
	<path d="M317,92c-102.477,0-186.744,79.458-194.429,180H77c-8.284,0-15,6.716-15,15v15H45c-24.813,0-45,20.187-45,45v90   c0,24.813,20.187,45,45,45h19.58c6.192,17.458,22.865,30,42.42,30h120c21.488,0,39.495-15.143,43.939-35.314   c15.365,3.515,30.793,5.263,46.046,5.263C425.628,481.949,512,393.836,512,287C512,179.477,424.523,92,317,92z M30,437v-90   c0-8.271,6.729-15,15-15h17v120H45C36.729,452,30,445.271,30,437z M227,482H107c-8.271,0-15-6.729-15-15V302h150v165   C242,475.271,235.271,482,227,482z M257,272h-43.924c7.301-50.817,51.119-90,103.924-90c57.897,0,105,47.103,105,105   c0,72.582-73.263,127.629-150,95.613V287C272,278.716,265.284,272,257,272z M272,446.063v-31.44   c15.009,4.945,30.214,7.423,45.202,7.423C390.827,422.043,452,361.919,452,287c0-74.439-60.561-135-135-135   c-69.369,0-126.676,52.595-134.162,120h-30.149c7.604-83.977,78.386-150,164.311-150c90.981,0,165,74.019,165,165   C482,391.985,383.457,475.227,272,446.063z"/>
	<path d="M135,60h15v15c0,8.284,6.716,15,15,15s15-6.716,15-15V60h15c8.284,0,15-6.716,15-15s-6.716-15-15-15h-15V15   c0-8.284-6.716-15-15-15s-15,6.716-15,15v15h-15c-8.284,0-15,6.716-15,15S126.716,60,135,60z"/>
	<path d="M15,150h15v15c0,8.284,6.716,15,15,15s15-6.716,15-15v-15h15c8.284,0,15-6.716,15-15s-6.716-15-15-15H60v-15   c0-8.284-6.716-15-15-15s-15,6.716-15,15v15H15c-8.284,0-15,6.716-15,15S6.716,150,15,150z"/>
</g>















</svg>
