<svg version="1.1" class="svg-icon" xmlns="http://www.w3.org/2000/svg" height="512" width="512" viewBox="0 0 511.968 511.968">
<g>
	<g>
		<path d="M224.624,191.968h-0.32c-8.864,0-15.84,7.168-15.84,16c0,8.832,7.328,16,16.16,16c8.832,0,16-7.168,16-16
			C240.624,199.136,233.456,191.968,224.624,191.968z"/>
	</g>
</g>
<g>
	<g>
		<path d="M288.624,191.968h-0.32c-8.864,0-15.84,7.168-15.84,16c0,8.832,7.328,16,16.16,16c8.832,0,16-7.168,16-16
			C304.624,199.136,297.456,191.968,288.624,191.968z"/>
	</g>
</g>
<g>
	<g>
		<path d="M192.624,255.968h-0.32c-8.864,0-15.84,7.168-15.84,16c0,8.832,7.328,16,16.16,16c8.832,0,16-7.168,16-16
			C208.624,263.136,201.456,255.968,192.624,255.968z"/>
	</g>
</g>
<g>
	<g>
		<path d="M256.624,255.968h-0.32c-8.864,0-15.84,7.168-15.84,16c0,8.832,7.328,16,16.16,16c8.832,0,16-7.168,16-16
			C272.624,263.136,265.456,255.968,256.624,255.968z"/>
	</g>
</g>
<g>
	<g>
		<path d="M320.624,255.968h-0.32c-8.864,0-15.84,7.168-15.84,16c0,8.832,7.328,16,16.16,16c8.832,0,16-7.168,16-16
			C336.624,263.136,329.456,255.968,320.624,255.968z"/>
	</g>
</g>
<g>
	<g>
		<path d="M224.624,319.968h-0.32c-8.832,0-15.84,7.168-15.84,16c0,8.832,7.328,16,16.16,16c8.832,0,16-7.168,16-16
			C240.624,327.136,233.456,319.968,224.624,319.968z"/>
	</g>
</g>
<g>
	<g>
		<path d="M288.624,319.968h-0.32c-8.832,0-15.84,7.168-15.84,16c0,8.832,7.328,16,16.16,16c8.832,0,16-7.168,16-16
			C304.624,327.136,297.456,319.968,288.624,319.968z"/>
	</g>
</g>
<g>
	<g>
		<path d="M415.92,494.528l-31.936-351.296V64c0-35.296-28.704-64-64-64h-128c-35.296,0-64,28.704-64,64v79.232L96.048,494.528
			c-0.416,4.48,1.088,8.896,4.128,12.224c3.04,3.328,7.296,5.216,11.808,5.216h288c4.512,0,8.768-1.92,11.808-5.216
			C414.832,503.456,416.336,499.008,415.92,494.528z M159.984,64c0-17.664,14.336-32,32-32h128c17.664,0,32,14.336,32,32v63.968
			h-192V64z M129.52,479.968l29.088-320H353.36l29.088,320H129.52z"/>
	</g>
</g>
<g>
	<g>
		<path d="M351.696,396.832c-1.76-8.704-10.624-14.368-18.848-12.544l-160,32c-8.672,1.728-14.304,10.144-12.576,18.816
			c1.568,7.616,8.224,12.864,15.68,12.864c1.056,0,2.112-0.096,3.168-0.32l160-32C347.792,413.92,353.424,405.504,351.696,396.832z"
			/>
	</g>
</g>
<g>
</g>
<g>
</g>
<g>
</g>
<g>
</g>
<g>
</g>
<g>
</g>
<g>
</g>
<g>
</g>
<g>
</g>
<g>
</g>
<g>
</g>
<g>
</g>
<g>
</g>
<g>
</g>
<g>
</g>
</svg>
