<svg class="svg-icon" height="512" viewBox="-71 0 512 512" width="512" xmlns="http://www.w3.org/2000/svg"><path d="m360.015625 156h-84.546875v-66c0-49.625-40.375-90-90-90-49.628906 0-90 40.375-90 90v66h-84.546875l-10.921875 356h370.933594zm-234.546875-66c0-33.085938 26.914062-60 60-60 33.082031 0 60 26.914062 60 60v66h-120zm-94.535156 392 9.082031-296h55.453125v40h30v-40h120v40h30v-40h55.453125l9.078125 296zm0 0"/><path d="m185.46875 281.179688c-20.101562-11.757813-46.402344-9.023438-63.617188 8.191406-20.464843 20.464844-20.464843 53.761718 0 74.226562l63.617188 63.617188 63.617188-63.621094c20.460937-20.460938 20.460937-53.757812 0-74.222656-17.21875-17.214844-43.519532-19.949219-63.617188-8.191406zm42.402344 61.203124-42.402344 42.402344-42.40625-42.402344c-8.765625-8.765624-8.765625-23.03125 0-31.796874 4.382812-4.382813 10.140625-6.574219 15.898438-6.574219 5.757812 0 11.515624 2.191406 15.898437 6.574219l10.609375 10.605468 10.605469-10.605468c8.765625-8.769532 23.03125-8.769532 31.796875 0 8.765625 8.765624 8.765625 23.03125 0 31.796874zm0 0"/></svg>