<svg xmlns="http://www.w3.org/2000/svg" version="1.1" class="svg-icon" viewBox="0 0 512 512" width="512" height="512">
<g>
	<path d="M399.841,246.198l-54.896-137.243c-7.989-19.974-7.011-44.266,2.553-63.395L370.277,0H141.736l22.779,45.56   c9.565,19.129,10.544,43.421,2.554,63.395l-54.897,137.243C86.049,311.506,79.877,368.471,93.828,415.51   c11.904,40.139,35.17,64.118,50.567,79.985c4.098,4.223,7.636,7.87,9.612,10.505l4.5,6h195l4.5-6   c1.818-2.424,5.248-5.923,9.22-9.974c14.459-14.748,38.659-39.433,50.747-79.693C432.178,369.028,426.077,311.786,399.841,246.198z    M146.162,242h219.689l6.136,15.339c3.266,8.166,6.137,16.025,8.659,23.607l-19.64-11.223l-52.5,30l-52.5-30l-52.5,30l-52.5-30   l-19.635,11.22c2.519-7.581,5.389-15.44,8.654-23.604L146.162,242z M194.924,120.096c11.244-28.109,9.908-60.989-3.575-87.953   L190.277,30h131.459l-1.072,2.143c-13.481,26.964-14.817,59.844-3.574,87.953L353.852,212H158.162L194.924,120.096z    M345.805,475.024c-2.428,2.476-4.685,4.778-6.714,6.976H172.965c-2.125-2.331-4.49-4.768-7.04-7.396   c-6.011-6.195-13.138-13.545-20.081-22.604h220.56C359.292,461.266,351.967,468.738,345.805,475.024z M384.153,422H128.074   c-10.419-24.117-15.852-56.285-7.459-100.357l30.392-17.367l52.5,30l52.5-30l52.5,30l52.5-30l30.434,17.391   C399.878,365.732,394.528,397.891,384.153,422z"/>
	<rect x="241.007" y="362" transform="matrix(-0.7071 -0.7071 0.7071 -0.7071 170.4519 824.6035)" width="30" height="30"/>
	<rect x="331.007" y="362" transform="matrix(0.7071 -0.7071 0.7071 0.7071 -165.2362 355.0846)" width="30" height="30"/>
	<rect x="151.007" y="362" transform="matrix(-0.7071 -0.7071 0.7071 -0.7071 16.8123 760.9639)" width="30" height="30"/>
</g>















</svg>
