<svg class="svg-icon" width="28px" height="24px" viewBox="0 0 28 24" version="1.1" xmlns="http://www.w3.org/2000/svg">
    <g stroke="none" stroke-width="1" fill-rule="evenodd">
        <path d="M21.749694,17.89868 C22.5922073,17.89868 23.3561812,18.2404567 23.9080987,18.7920086 C24.4600163,19.3435605 24.8020196,20.1070282 24.8020196,20.9489832 C24.8020196,21.7887977 24.4600163,22.5509097 23.9080987,23.1031038 C23.3561812,23.6582233 22.5922073,24 21.749694,24 C20.9093227,24 20.1467768,23.6582233 19.5948592,23.1066714 L19.5905753,23.1031038 C19.0393717,22.5509097 18.6973684,21.7887977 18.6973684,20.9489832 C18.6973684,20.1070282 19.0393717,19.3435605 19.5905753,18.7920086 C20.1467768,18.2404567 20.9093227,17.89868 21.749694,17.89868 Z M7.65687475,4.63146629 L27.2995716,4.63146629 C27.6851285,4.63146629 28,4.94541563 28,5.33143061 L28,5.68112736 C28,6.06635747 27.6851285,6.38102034 27.2995716,6.38102034 L8.12668299,6.38102034 L9.00846593,9.66963967 L25.7337821,9.66963967 C26.119339,9.66963967 26.4342105,9.98358901 26.4342105,10.3688905 L26.4342105,10.7192294 C26.4342105,11.1045309 26.119339,11.4191937 25.7337821,11.4191937 L9.47756018,11.4191937 L9.72960016,12.3603282 C9.88667891,12.9454156 10.2186863,13.4327506 10.6599347,13.7709597 C11.1018972,14.1098823 11.6595267,14.3046736 12.2671359,14.3046736 L24.4914321,14.3046736 C24.877703,14.3046736 25.1918605,14.6186943 25.1918605,15.0046379 L25.1918605,15.3542633 C25.1918605,15.7402783 24.877703,16.0542276 24.4914321,16.0542276 L12.2671359,16.0542276 C11.2682579,16.0542276 10.3422073,15.7267214 9.5996532,15.158045 C8.85638515,14.5879415 8.2994696,13.7773814 8.04100367,12.8119872 L5.59557324,3.69468427 C5.43920849,3.10881199 5.10720114,2.62147699 4.66595267,2.28326793 C4.22399021,1.94505887 3.66564667,1.74955405 3.05875153,1.74955405 L0.700428397,1.74955405 C0.314157487,1.74955405 0,1.43560471 0,1.05030325 L0,0.699964324 C0,0.314734213 0.314157487,0 0.700428397,0 L3.05875153,0 C4.05762954,0 4.98296614,0.327506243 5.72623419,0.896254014 C6.47021624,1.46628612 7.02641779,2.27691759 7.28488372,3.24295398 L7.65687475,4.63146629 Z M12.499184,17.89868 C13.3416973,17.89868 14.1056712,18.2404567 14.6575887,18.7920086 C15.2095063,19.3435605 15.5515096,20.1070282 15.5515096,20.9489832 C15.5515096,21.7887977 15.2095063,22.5509097 14.6575887,23.1031038 C14.1056712,23.6582233 13.3416973,24 12.499184,24 C11.6588127,24 10.8962668,23.6582233 10.3436353,23.1066714 L10.3407793,23.1031038 C9.78886169,22.5509097 9.44685843,21.7887977 9.44685843,20.9489832 C9.44685843,20.1070282 9.78886169,19.3435605 10.3407793,18.7920086 C10.8962668,18.2404567 11.6588127,17.89868 12.499184,17.89868 Z M13.4195226,20.0292544 C13.1846185,19.7945059 12.8583231,19.648234 12.499184,19.648234 C12.1386169,19.648234 11.8123215,19.7930788 11.5767034,20.0278273 C11.3432273,20.2647164 11.1975724,20.5900821 11.1975724,20.9489832 C11.1975724,21.3093115 11.3425133,21.6361042 11.5767034,21.870924 C11.8123215,22.104959 12.1386169,22.250446 12.499184,22.250446 C12.8583231,22.250446 13.1846185,22.1041741 13.4195226,21.8694256 C13.6558548,21.6361042 13.8007956,21.3093115 13.8007956,20.9489832 C13.8007956,20.5900821 13.6551408,20.2647164 13.4195226,20.0292544 Z M22.6700326,20.0292544 C22.4351285,19.7945059 22.1088331,19.648234 21.749694,19.648234 C21.3891269,19.648234 21.0628315,19.7930788 20.8272134,20.0278273 C20.5937373,20.2647164 20.4480824,20.5900821 20.4480824,20.9489832 C20.4480824,21.3093115 20.5930233,21.6361042 20.8272134,21.870924 C21.0628315,22.104959 21.3891269,22.250446 21.749694,22.250446 C22.1088331,22.250446 22.4351285,22.1041741 22.6700326,21.8694256 C22.9063647,21.6361042 23.0513056,21.3093115 23.0513056,20.9489832 C23.0513056,20.5900821 22.9056508,20.2647164 22.6700326,20.0292544 Z" id="Fill-1"></path>
    </g>
</svg>