<svg class="svg-icon" width="20px" height="20px" viewBox="0 0 20 20" version="1.1" xmlns="http://www.w3.org/2000/svg">
    <g fill="#FFFFFF" fill-rule="nonzero">
        <path d="M11.0861121,10.0001923 L19.7719318,1.31286904 C20.0719203,1.01282865 20.0719203,0.525070683 19.7719318,0.225030293 C19.4719434,-0.0750100975 18.9842698,-0.0750100975 18.6842814,0.225030293 L9.9984616,8.91235359 L1.31264182,0.225030293 C1.01265336,-0.0750100975 0.524979808,-0.0750100975 0.224991346,0.225030293 C-0.0749971155,0.525070683 -0.0749971155,1.01282865 0.224991346,1.31286904 L8.91081112,10.0001923 L0.224991346,18.6875156 C-0.0749971155,18.987556 -0.0749971155,19.475314 0.224991346,19.7753544 C0.375754779,19.9261439 0.572670282,20 0.769585785,20 C0.966501288,20 1.16341679,19.9246052 1.31418022,19.7753544 L10,11.0880311 L18.6858198,19.7753544 C18.8365832,19.9261439 19.0334987,20 19.2304142,20 C19.4273297,20 19.6242452,19.9246052 19.7750087,19.7753544 C20.0749971,19.475314 20.0749971,18.987556 19.7750087,18.6875156 L11.0891889,10.0001923 L11.0861121,10.0001923 Z" id="Path"></path>
    </g>
</svg>