<svg class="svg-icon" version="1.1" xmlns="http://www.w3.org/2000/svg" width="21" height="24" viewBox="-2 0 26 20">
<g style="stroke-width: 0.1">
	<path d="M24,6.7c0,1.8-0.7,3.5-2,4.8l-9.3,9.2c-0.4,0.4-1.1,0.4-1.5,0L2,11.5C-0.7,8.9-0.7,4.6,2,2s7-2.6,9.6,0L12,2.3L12.4,2
		c1.3-1.3,3-2,4.8-2C19,0,20.7,0.7,22,2C23.3,3.2,24,5,24,6.7z M12,18.5l7.4-7.3l1.1-1.1c0.9-0.9,1.4-2.1,1.4-3.3s-0.5-2.4-1.4-3.3
		c-0.9-0.9-2.1-1.4-3.3-1.4s-2.5,0.5-3.3,1.4l-1.1,1.1c-0.4,0.4-1.1,0.4-1.5,0l-1.1-1.1c-1.8-1.8-4.8-1.8-6.7,0s-1.8,4.8,0,6.6
		L12,18.5z"/>
</g>
</svg>
