<svg class="svg-icon" width="24px" height="21px" viewBox="0 0 24 21" version="1.1" xmlns="http://www.w3.org/2000/svg">
    <g id="Symbols" stroke="none" stroke-width="1" fill="none" fill-rule="evenodd">
        <g fill="#FFFFFF" fill-rule="nonzero">
            <path d="M22.4518256,6.5 C22.4518256,8.22443585 21.7665872,9.87819867 20.5471068,11.0971068 L11.7071068,19.9371068 C11.3165825,20.3276311 10.6834175,20.3276311 10.2928932,19.9371068 L1.45289321,11.0971068 C-1.0860187,8.55819479 -1.08601867,4.44180522 1.45289328,1.90289328 C3.99180522,-0.636018665 8.10819479,-0.636018696 10.6471068,1.90289322 L11,2.25578645 L11.3527273,1.9030592 C12.5718013,0.683412756 14.2255641,-0.00182562119 15.95,-0.00182562119 C17.6743576,-0.00182562119 19.3280486,0.68335058 20.5471068,1.9028932 C21.7666494,3.12195139 22.4518256,4.77564239 22.4518256,6.5 Z M11,17.8157864 L18.0728932,10.7428932 L19.1330592,9.68272727 C19.9774298,8.83875293 20.4518256,7.6938402 20.4518256,6.5 C20.4518256,5.3061598 19.9774298,4.16124707 19.1330592,3.31727273 C18.2887529,2.47257018 17.1438402,1.99817438 15.95,1.99817438 C14.7561598,1.99817438 13.6112471,2.47257018 12.7671068,3.31710678 L11.7071068,4.37710678 C11.3165825,4.76763107 10.6834175,4.76763107 10.2928932,4.37710678 L9.23289323,3.31710679 C7.47502984,1.55924345 4.62497021,1.55924347 2.86710684,3.31710684 C1.10924347,5.07497021 1.10924345,7.92502984 2.86710678,9.68289322 L11,17.8157864 Z"></path>
        </g>
    </g>
</svg>