<?xml version="1.0" encoding="utf-8"?>
<!-- Generator: Adobe Illustrator 22.1.0, SVG Export Plug-In . SVG Version: 6.00 Build 0)  -->
<svg version="1.1" id="Capa_1" xmlns="http://www.w3.org/2000/svg" xmlns:xlink="http://www.w3.org/1999/xlink" x="0px" y="0px"
	 viewBox="0 0 26.1 26.1" style="enable-background:new 0 0 26.1 26.1;" xml:space="preserve">
<g>
	<path d="M25.5,13.5H0.4C0.2,13.5,0,13.3,0,13s0.2-0.5,0.4-0.5h25.1c0.2,0,0.4,0.2,0.4,0.5S25.7,13.5,25.5,13.5z"/>
	<path d="M12.9,26.1c-0.1,0-0.3,0-0.4-0.1c-0.2-0.2-0.2-0.5,0-0.7L24.7,13L12.5,0.9c-0.2-0.2-0.2-0.5,0-0.7s0.5-0.2,0.7,0l12.5,12.5
		c0.1,0.1,0.1,0.2,0.1,0.4s-0.1,0.3-0.1,0.4L13.2,25.9C13.1,26,13,26.1,12.9,26.1z"/>
</g>
</svg>
