<svg class="svg-icon" width="55px" height="55px" viewBox="0 0 55 55" version="1.1" xmlns="http://www.w3.org/2000/svg">
    <circle stroke="none" fill="#FFFFFF" cx="27.5" cy="27.5" r="27.5"></circle>
    <g transform="translate(16.076923, 17.769231)" stroke="none" fill="#9631EF">
        <path d="M24.3417909,9.43179487 C24.3417909,9.23677656 24.2527356,9.05948718 24.1221211,8.93538462 L24.1221211,8.93538462 L14.7000669,0.224566545 C14.7000669,0.224566545 14.7000669,0.224566545 14.7000669,0.224566545 L14.6822558,0.206837607 L14.6822558,0.206837607 C14.5635154,0.0945543346 14.4032158,0.0236385836 14.2251051,0.0236385836 C13.8510727,0.0236385836 13.5482846,0.325030525 13.5482846,0.697338217 L13.5482846,0.697338217 L13.5482846,5.42505495 C10.7222621,5.62007326 0.0534331996,6.97338217 0.0534331996,16.8188523 L0.0534331996,18.5799267 C0.0534331996,18.5799267 3.54440224,12.4220757 13.5423476,12.1443223 L13.5423476,16.807033 L13.5423476,16.807033 C13.5423476,16.8129426 13.5423476,16.8129426 13.5423476,16.8188523 C13.5423476,17.19116 13.8451357,17.4925519 14.2191681,17.4925519 C14.3794677,17.4925519 14.5160192,17.4275458 14.6347597,17.3389011 L14.6347597,17.3389011 L14.6585078,17.3211722 C14.6703818,17.3093529 14.6881929,17.3034432 14.7000669,17.2857143 L24.0746249,9.95184371 L24.0746249,9.95184371 C24.2349245,9.83365079 24.3417909,9.65045177 24.3417909,9.43179487 Z" id="Shape"></path>
    </g>
</svg>