<svg class="svg-icon" width="16px" height="16px" viewBox="0 0 16 16" version="1.1" xmlns="http://www.w3.org/2000/svg">
    <g stroke="none" stroke-width="1" fill="none" fill-rule="evenodd" transform="translate(8.000000, 8.000000) scale(-1, 1) translate(-8.000000, -8.000000) ">
        <path d="M14.7630599,9.53818182 L9.54727273,14.7539733 C9.13803289,15.1636687 8.58271109,15.3938715 8.00363636,15.3938715 C7.42456164,15.3938715 6.86923983,15.1636687 6.46058557,14.7545589 L0.213312848,8.5145589 C0.0767394919,8.37814454 0,8.1930315 0,8 L0,0.727272727 C0,0.325611091 0.325611091,0 0.727272727,0 L8,0 C8.19288472,0 8.37786938,0.0766231566 8.51425948,0.21301325 L14.7630599,6.46181818 C15.6090022,7.31280899 15.6090022,8.68719101 14.7630599,9.53818182 Z" fill="#FFE534"></path>
        <path d="M3.99582343,5.73144884 C3.51654371,5.25216912 3.51654371,4.47510315 3.99582343,3.99582343 C4.47510315,3.51654371 5.25216912,3.51654371 5.73144884,3.99582343 C6.21072857,4.47510315 6.21072857,5.25216912 5.73144884,5.73144884 C5.25216912,6.21072857 4.47510315,6.21072857 3.99582343,5.73144884 Z" fill="#543371"></path>
    </g>
</svg>